<svg xmlns="http://www.w3.org/2000/svg" xmlns:xlink="http://www.w3.org/1999/xlink" x="0px" y="0px" viewBox="0 0 100 100" style="enable-background:new 0 0 100 100;" xml:space="preserve"><g transform="translate(567 3510.507)">	<path d="M-528.316-3440.928c-0.463,0.001-0.894-0.235-1.143-0.625c-2.463-3.851-4.986-8.034-7.512-12.43  c-0.37-0.655-0.139-1.486,0.516-1.856c0.655-0.37,1.486-0.139,1.856,0.516c2.487,4.349,4.986,8.496,7.421,12.312  c0.404,0.631,0.22,1.469-0.411,1.873c-0.217,0.139-0.47,0.214-0.728,0.214"></path>	<path d="M-506.061-3418.009c-4.349,0-9.327-3.673-15.15-11.209c-0.469-0.583-0.377-1.437,0.207-1.906  s1.437-0.377,1.907,0.207c0.011,0.014,0.022,0.029,0.033,0.043c5.46,7.065,10.011,10.446,13.529,10.129  c5.4-0.292,10.476-2.666,14.162-6.623c6.128-6.057-2.265-28.909-7.279-42.561c-0.219-0.716,0.185-1.474,0.901-1.693  c0.661-0.201,1.367,0.126,1.641,0.76c7.381,20.097,13.442,38.695,6.682,45.38c-4.134,4.45-9.83,7.128-15.894,7.472  c-0.245,0.024-0.49,0.036-0.739,0.036"></path>	<path d="M-539.485-3459.981c-0.496-0.002-0.951-0.275-1.186-0.712c-1.423-2.645-2.657-5.041-3.38-6.583  c-4.535-9.659-0.613-15.882,14.466-22.959c15.222-7.144,22.536-6.191,27.067,3.468c0.85,1.811,2.167,4.938,3.531,8.366  c0.247,0.707-0.126,1.48-0.833,1.728c-0.666,0.233-1.399-0.083-1.686-0.728c-1.34-3.38-2.637-6.452-3.463-8.212  c-3.289-7.006-7.99-9.429-23.382-2.202c-15.392,7.227-16.534,12.391-13.245,19.393c0.704,1.494,1.91,3.847,3.313,6.448  c0.354,0.66,0.105,1.482-0.555,1.836c-0.194,0.104-0.411,0.159-0.631,0.161"></path>	<path d="M-483.774-3429.554l-0.395-2.685c2.432-0.369,4.809-1.042,7.073-2.005  c8.967-4.207-0.04-42.806-6.255-56.047c-1.401-3.337-3.998-6.031-7.283-7.552c-2.993-1.246-6.381-1.126-9.279,0.328  c-1.818,0.941-3.438,2.222-4.772,3.776l-2.095-1.72c1.589-1.864,3.53-3.396,5.713-4.507c3.592-1.761,7.767-1.897,11.466-0.372  c3.91,1.773,7.013,4.947,8.698,8.896c4.551,9.698,17.542,53.742,4.954,59.653c-2.508,1.08-5.144,1.832-7.844,2.238"></path>	<path d="M-521.792-3411.007c-5.207,0-12.256-5.12-21.014-15.281c-7.253-8.36-13.52-17.527-18.677-27.32  c-1.959-3.807-2.434-8.206-1.332-12.343c1.169-3.822,3.934-6.952,7.583-8.583c2.249-0.969,4.668-1.483,7.117-1.514l-0.02,2.708  c-2.037,0.056-4.046,0.482-5.93,1.257c-2.966,1.29-5.216,3.817-6.156,6.911c-0.904,3.499-0.482,7.208,1.186,10.414  c5.067,9.559,11.197,18.516,18.274,26.699c9.248,10.726,16.827,15.815,20.765,13.957c2.186-1.126,4.223-2.522,6.061-4.155  l1.823,2.004c-2.033,1.817-4.292,3.364-6.721,4.602c-0.925,0.43-1.934,0.649-2.953,0.641"></path>	<path d="M-533.97-3486.791c-2.645-7.165-2-15.131,1.763-21.777c0.399-0.827,1.211-1.376,2.127-1.439l4.82,0.316  c1.464,0.096,2.573,1.361,2.477,2.825c-0.023,0.344-0.112,0.68-0.263,0.99c-1.936,4.722-2.23,9.957-0.834,14.866l-2.633,0.637  c-1.543-5.521-1.179-11.4,1.032-16.688l-4.329-0.221l-0.087,0.126c-3.354,5.989-3.896,13.153-1.483,19.579L-533.97-3486.791z"></path></g></svg>