<svg xmlns="http://www.w3.org/2000/svg" xmlns:xlink="http://www.w3.org/1999/xlink" x="0px" y="0px" viewBox="0 0 150 150" style="enable-background:new 0 0 150 150;" xml:space="preserve"><g>	<path id="Path_18719" d="M86.944,131.14c-0.916-1.371-1.674-2.841-2.26-4.383c-4.792-12.445,3.245-22.014,6.346-23.21l14.332-5.515  c2.669-1.03,12.243,0.026,17.969,8.514c0.933,1.391,1.706,2.883,2.304,4.448c3.81,9.9-0.731,17.233-4.382,23.125  c-2.864,4.623-5.338,8.617-3.693,12.89c0.245,0.636,0.019,1.356-0.545,1.739c-0.093,0.062-0.192,0.114-0.297,0.154  c-0.755,0.289-1.601-0.087-1.893-0.841c-1.604-4.153-6.077-5.552-11.382-7.085c-5.743-1.66-12.248-3.542-16.495-9.839   M120.906,108.181c-4.803-7.121-12.943-8.012-14.485-7.419l-14.335,5.517c-1.505,0.58-8.869,8.498-4.664,19.422  c0.507,1.335,1.163,2.609,1.956,3.797c3.653,5.416,9.361,7.065,14.882,8.659c3.732,1.078,7.309,2.113,9.965,4.265  c0.528-3.372,2.495-6.554,4.541-9.85c3.651-5.891,7.427-11.986,4.138-20.528c-0.519-1.359-1.19-2.654-1.999-3.863"></path>	<path id="Path_18720" d="M94.39,123.373c-0.062-0.092-0.113-0.192-0.153-0.296c-1.402-3.311-0.954-7.116,1.178-10.011  c0.485-0.647,1.403-0.779,2.051-0.294c0.647,0.485,0.779,1.403,0.294,2.051c-1.517,2.092-1.816,4.83-0.786,7.2  c0.292,0.755-0.082,1.603-0.837,1.896c-0.638,0.247-1.363,0.02-1.745-0.548"></path>	<path id="Path_18721" d="M97.508,102.979c-0.062-0.093-0.113-0.192-0.153-0.296c-11.958-31.052-14.207-62.666-6.344-89.015  c0.232-0.775,1.048-1.216,1.824-0.984c0.775,0.232,1.216,1.048,0.984,1.824c-7.678,25.728-5.453,56.672,6.27,87.125  c0.292,0.755-0.082,1.603-0.837,1.896C98.614,103.776,97.889,103.548,97.508,102.979"></path>	<path id="Path_18722" d="M104.673,100.221c-0.062-0.093-0.113-0.192-0.153-0.296c-6.26-16.259-6.123-36.125,0.346-50.612  c0.331-0.739,1.197-1.07,1.936-0.739c0.739,0.33,1.07,1.197,0.739,1.936c-6.167,13.811-6.28,32.794-0.286,48.363  c0.292,0.755-0.082,1.603-0.837,1.896C105.78,101.017,105.056,100.789,104.673,100.221"></path>	<path id="Path_18723" d="M50.636,52.461c-0.452-0.672-0.273-1.583,0.399-2.035c0.513-0.345,1.188-0.331,1.687,0.036  c17.002,12.541,32.034,32.703,40.202,53.927c0.29,0.755-0.086,1.603-0.841,1.893c-0.755,0.29-1.603-0.086-1.893-0.841  c-7.974-20.718-22.635-40.394-39.205-52.621c-0.135-0.1-0.252-0.222-0.346-0.36"></path>	<path id="Path_18724" d="M78.603,59.185c-1.197-1.794-2.184-3.719-2.942-5.738c-1.21-3.142-0.557-6.441,0.019-9.352  c0.366-1.843,0.713-3.586,0.43-4.737c-0.25-1.021-0.736-2.378-1.25-3.813c-1.256-3.51-2.557-7.141-2.006-9.647  c1.051-4.774,2.926-6.428,4.293-7.637c0.561-0.396,1.01-0.931,1.303-1.552c0.111-0.298,0.225-0.669,0.358-1.092  c1.016-3.258,3.127-10.035,11.641-13.31c6.054-2.33,10.451-1.542,13.07,2.342c0.642,0.994,1.174,2.054,1.589,3.162  c1.546,3.891-0.552,6.544-1.805,8.127c-0.35,0.394-0.648,0.831-0.885,1.302c0.105,1.096,0.326,2.179,0.659,3.229  c0.539,2.03,1.097,4.132,0.848,5.737c-0.604,3.953-3.401,7.745-5.246,10.26c-0.515,0.652-0.984,1.34-1.405,2.056  c-0.483,1.089-0.538,5.381-0.285,8.708c0.525,6.905-1.184,10.579-2.997,14.459c-1.356,2.673-2.372,5.506-3.026,8.431  c-0.015,0.809-0.682,1.452-1.491,1.438c-0.478-0.009-0.922-0.25-1.189-0.647c-0.005-0.01-0.011-0.02-0.019-0.028  c-0.032-0.047-0.061-0.096-0.088-0.146c-1.292-2.307-2.949-4.389-4.908-6.166c-1.741-1.627-3.308-3.432-4.675-5.383 M101.09,6.288  c-1.231-1.826-3.434-3.615-9.589-1.247c-7.193,2.764-8.951,8.415-9.897,11.447c-0.149,0.484-0.281,0.903-0.408,1.244  c-0.451,1.077-1.177,2.016-2.107,2.723c-1.185,1.046-2.526,2.231-3.372,6.072c-0.373,1.683,0.888,5.201,1.903,8.029  c0.54,1.51,1.051,2.934,1.338,4.105c0.434,1.783,0.032,3.83-0.402,6.004c-0.524,2.644-1.066,5.377-0.16,7.728  c0.68,1.812,1.565,3.541,2.639,5.152c1.262,1.791,2.705,3.447,4.306,4.943c1.286,1.219,2.481,2.53,3.575,3.924  c0.67-2.042,1.481-4.035,2.426-5.965c1.715-3.679,3.198-6.858,2.731-12.999c-0.025-0.31-0.567-7.651,0.526-10.116  c0.491-0.92,1.068-1.793,1.723-2.605c1.677-2.279,4.213-5.724,4.709-8.966c-0.026-1.545-0.291-3.077-0.784-4.542  c-0.446-1.346-0.699-2.749-0.75-4.166c0.189-1.109,0.717-2.133,1.51-2.931c1.183-1.494,2.3-2.91,1.383-5.224  c-0.339-0.912-0.773-1.785-1.294-2.607"></path>	<path id="Path_18725" d="M99.358,74.702c-2.701-4.004-7.226-13.897-7.426-14.333c-0.321-0.744,0.023-1.606,0.766-1.927  c0.721-0.311,1.559,0.001,1.9,0.708c0.049,0.112,4.965,10.932,7.465,14.307c0.455,0.659,0.314,1.559-0.32,2.048  c-0.654,0.477-1.571,0.334-2.048-0.32c0,0,0,0,0,0C99.587,75.036,99.472,74.871,99.358,74.702"></path>	<path id="Path_18726" d="M99.666,75.141c-0.263-0.387-0.324-0.877-0.166-1.317c0.685-1.896,3.185-3.984,6.351-6.627  c3.278-2.736,7.356-6.141,8.407-8.918c1.135-3.008,0.588-5.276,0.062-7.474c-0.481-1.505-0.633-3.095-0.447-4.664  c0.437-1.376,1.117-2.663,2.008-3.8c2.026-3.078,4.798-7.296,3.381-10.979c-0.35-0.835-3.434-2.778-4.784-2.261  c-5.298,2.041-7.134,5.74-9.075,9.664c-1.94,3.924-3.938,7.95-9.365,9.947c-0.759,0.28-1.601-0.109-1.881-0.868  c-0.28-0.759,0.109-1.601,0.868-1.881c4.331-1.596,5.918-4.795,7.752-8.5c2.005-4.052,4.278-8.645,10.646-11.095  c3.045-1.172,7.713,1.672,8.573,3.94c1.959,5.09-1.424,10.24-3.671,13.645c-0.623,0.845-1.151,1.757-1.575,2.717  c-0.091,1.166,0.05,2.338,0.414,3.45c0.574,2.38,1.285,5.344-0.167,9.196c-1.323,3.496-5.543,7.02-9.268,10.13  c-2.375,1.981-5.059,4.224-5.472,5.373c-0.274,0.761-1.112,1.156-1.874,0.883c-0.293-0.105-0.545-0.301-0.719-0.559"></path>	<path id="Path_18727" d="M24.768,41.825c-0.301-0.441-0.55-0.914-0.744-1.411c-1.313-3.406-1.447-5.88-0.425-7.797  c1.081-2.028,3.294-3.103,5.525-3.959c3.699-1.425,6.958,0.459,9.338,1.832c0.754,0.511,1.582,0.902,2.455,1.162  c0.59,0.057,1.401,0.048,2.338,0.037c2.735-0.031,6.476-0.077,9.271,1.581c1.455,0.985,2.675,2.279,3.574,3.789  c0.584,0.866,1.163,1.815,1.759,2.792c0.602,0.986,1.225,2.009,1.885,2.987c0.784,1.217,1.702,2.342,2.738,3.354  c1.283,1.134,2.681,2.13,4.171,2.975c2.392,1.465,4.865,2.982,6.885,5.977c0.519,0.774,0.976,1.589,1.365,2.436  c1.871,4.036,1.89,7.835,1.907,11.188c-0.11,2.265,0.12,4.534,0.683,6.73c0.244,0.772-0.183,1.595-0.955,1.839  c-0.34,0.108-0.708,0.088-1.035-0.057c-0.687-0.13-1.383-0.208-2.082-0.232c-4.061-0.139-8.055-1.07-11.76-2.739  c-1.771-0.84-3.276-2.153-4.348-3.794l0,0c-0.4-0.593-0.741-1.196-1.074-1.782c-0.462-0.93-1.067-1.782-1.794-2.524  c-0.71-0.616-1.719-0.658-3.437-0.685c-2.498,0.113-4.985-0.406-7.229-1.51c-1.102-0.597-2.037-1.461-2.72-2.512  c-1.47-2.179-2.131-5.108-2.662-7.463c-0.201-1.231-0.561-2.431-1.071-3.569c-1.054-0.795-2.192-1.473-3.392-2.022  c-3.226-1.676-7.238-3.762-9.164-6.617 M53.669,38.696c-0.682-1.132-1.578-2.119-2.639-2.907c-2.084-1.235-5.219-1.203-7.747-1.169  c-0.884,0.028-1.769,0.011-2.652-0.051c-1.307-0.258-2.546-0.782-3.64-1.54c-2.075-1.197-4.427-2.556-6.82-1.637  c-2.324,0.895-3.479,1.651-3.99,2.605c-0.592,1.109-0.409,2.816,0.573,5.367c0.116,0.29,0.263,0.567,0.44,0.825  c1.506,2.232,5.308,4.213,8.085,5.656c1.429,0.644,2.775,1.459,4.008,2.426c0.993,0.947,1.453,2.856,1.965,5.122  c0.502,2.226,1.071,4.748,2.233,6.47c0.41,0.65,0.978,1.184,1.651,1.554c1.839,0.889,3.873,1.294,5.912,1.178  c1.85,0.028,3.763,0.055,5.315,1.402c0.984,0.958,1.804,2.072,2.427,3.297c0.295,0.523,0.596,1.056,0.952,1.584  c0.783,1.211,1.889,2.179,3.194,2.795c3.371,1.509,7.004,2.344,10.696,2.455l0.549,0.039c-0.239-1.785-0.341-3.585-0.305-5.386  c-0.015-3.202-0.031-6.514-1.633-9.97c-0.325-0.705-0.706-1.384-1.137-2.03c-1.667-2.471-3.763-3.755-5.987-5.119  c-1.66-0.948-3.216-2.067-4.642-3.34c-1.195-1.161-2.255-2.453-3.161-3.852c-0.686-1.016-1.33-2.072-1.957-3.101  C54.786,40.435,54.229,39.526,53.669,38.696"></path></g></svg>