<svg xmlns="http://www.w3.org/2000/svg" xmlns:xlink="http://www.w3.org/1999/xlink" x="0px" y="0px" viewBox="0 0 70.8 39.6" style="enable-background:new 0 0 70.8 39.6;" xml:space="preserve"><style type="text/css">	.truck-1{fill:none;stroke:currentcolor;stroke-width:2;stroke-linecap:round;}</style><g>	<g class="truck-0">		<path class="truck-1" d="M12.6,1.2H48c0.1,0,0.2,0.1,0.2,0.2c0,0,0,0,0,0v31.2"></path>		<line class="truck-1" x1="20.8" y1="32.6" x2="12.6" y2="32.6"></line>		<line class="truck-1" x1="53" y1="32.6" x2="32.3" y2="32.6"></line>		<path class="truck-1" d="M48.4,5.3h11.9c0.3,0,0.5,0.1,0.6,0.3l8.4,13.5c0.2,0.4,0.4,0.8,0.4,1.2v9.5   c0,1.5-1.2,2.7-2.7,2.7h-2.4"></path>		<circle class="truck-1" cx="58.7" cy="32.7" r="5.7"></circle>		<path class="truck-1" d="M32.3,32.7c0,3.2-2.6,5.7-5.7,5.7s-5.7-2.6-5.7-5.7s2.6-5.7,5.7-5.7l0,0   C29.8,27,32.3,29.6,32.3,32.7z"></path>		<path class="truck-1" d="M63.1,10.3h-6.8c-0.3,0-0.5,0.2-0.5,0.5c0,0,0,0.1,0,0.1l1.4,8c0.1,0.4,0.4,0.6,0.8,0.6h11.3   "></path>		<line class="truck-1" x1="4.9" y1="6.8" x2="12.6" y2="6.8"></line>		<line class="truck-1" x1="7.6" y1="13.6" x2="15.8" y2="13.6"></line>		<line class="truck-1" x1="5.1" y1="27" x2="15.9" y2="27"></line>		<line class="truck-1" x1="1.2" y1="20.3" x2="12.1" y2="20.3"></line>	</g></g></svg>