<svg xmlns="http://www.w3.org/2000/svg" xmlns:xlink="http://www.w3.org/1999/xlink" x="0px" y="0px" viewBox="0 0 49.2 47" style="enable-background:new 0 0 49.2 47;" xml:space="preserve"><g transform="translate(644.297 7814.621)">	<g>		<defs>			<rect x="-640.3" y="-7813.1" width="41.3" height="43.8"></rect>		</defs>		<g class="worker-0">			<path class="worker-1" d="M-624.2-7793.4h-2c-3.4,0-6.1-2.7-6.1-6.1v-7.5c0-3.4,2.7-6.1,6.1-6.1h2    c3.4,0,6.1,2.7,6.1,6.1v7.5C-618.1-7796.1-620.9-7793.4-624.2-7793.4 M-626.2-7811.5c-2.5,0-4.5,2-4.5,4.5v7.5    c0,2.5,2,4.5,4.5,4.5h2c2.5,0,4.5-2,4.5-4.5v-7.5c0-2.5-2-4.5-4.5-4.5H-626.2z"></path>			<rect x="-637" y="-7805.4" class="worker-1" width="23.5" height="1.6"></rect>			<path id="Path_15379" class="worker-1" d="M-638.7-7769.2h-1.6v-10.4c0-7,6.4-12.7,14.3-12.7h1.5c7.9,0,14.3,5.7,14.3,12.7v4.8h2.1    v1.6h-3.7v-6.4c0-6.2-5.7-11.2-12.8-11.2h-1.5c-7,0-12.8,5-12.8,11.2V-7769.2z"></path>			<rect x="-634.5" y="-7781.8" class="worker-1" width="1.6" height="12.5"></rect>			<rect x="-617.5" y="-7781.8" class="worker-1" width="1.6" height="12.5"></rect>			<rect x="-633.7" y="-7778.1" class="worker-1" width="16.7" height="1.6"></rect>			<rect x="-631.3" y="-7790.6" class="worker-1" width="1.6" height="13.1"></rect>			<rect x="-620.7" y="-7790.6" class="worker-1" width="1.6" height="13.1"></rect>			<rect x="-606.3" y="-7792" class="worker-1" width="1.6" height="15.7"></rect>			<path class="worker-1" d="M-604.5-7769.2h-1.9c-1.2,0-2.2-1-2.2-2.2v-3.6c0-1.2,1-2.2,2.2-2.2h1.9    c1.2,0,2.2,1,2.2,2.2v3.7C-602.4-7770.2-603.3-7769.2-604.5-7769.2 M-606.4-7775.7c-0.3,0-0.6,0.3-0.6,0.6v3.7    c0,0.3,0.3,0.6,0.6,0.6h1.9c0.3,0,0.6-0.3,0.6-0.6v-3.6c0-0.3-0.3-0.6-0.6-0.6L-606.4-7775.7z"></path>			<path class="worker-1" d="M-600.6-7791.8h-9.7c-0.9,0-1.6-0.7-1.6-1.6v-7.6l0.2-0.2c1.3-1.6,4.5-5.2,6.2-5.2    s5,3.7,6.2,5.2l0.2,0.2v7.6C-599.1-7792.5-599.8-7791.8-600.6-7791.8 M-610.3-7800.4v7l9.7,0l0-7c-2-2.4-4.2-4.4-4.9-4.5    C-606.1-7804.8-608.4-7802.8-610.3-7800.4"></path>		</g>	</g></g></svg>